<?xml version="1.0" encoding="UTF-8"?>
<svg xmlns="http://www.w3.org/2000/svg" viewBox="0 0 32 29.98">
  <defs>
    <style>
      .cls-1 {
        fill: none;
        stroke: #ed1c24;
      }

      .cls-1, .cls-2, .cls-3, .cls-4, .cls-5 {
        stroke-miterlimit: 10;
        stroke-width: .25px;
      }

      .cls-2, .cls-4, .cls-5 {
        stroke: #231f20;
      }

      .cls-2, .cls-6 {
        fill: #231f20;
      }

      .cls-3 {
        fill: #9cdaea;
        stroke: #b3d336;
      }

      .cls-4 {
        fill: #2aaf4b;
      }

      .cls-5 {
        fill: #fff200;
      }
    </style>
  </defs>
  <g id="Warstwa_3" data-name="Warstwa 3">
    <path class="cls-3" d="m28,15c0-3.31-1.34-6.31-3.51-8.49s-5.17-3.51-8.49-3.51-6.31,1.34-8.49,3.51-3.51,5.17-3.51,8.49,1.34,6.31,3.51,8.49c1.24,1.24,2.75,2.19,4.43,2.8,0,0,0,0,.01-.01.04-.03.09-.07.14-.1.54-.38,1.19-.69,1.91-.91.72-.21,1.51-.33,2.34-.33s1.62.12,2.34.33c.68.2,1.29.5,1.82.86,1.5-.61,2.86-1.51,3.99-2.64,2.17-2.17,3.51-5.17,3.51-8.49Z"/>
    <path class="cls-5" d="m16.34,24.93c-.83,0-1.62.12-2.34.33-.72.21-1.36.53-1.91.91-.05.03-.09.07-.14.1,0,0,0,0-.01.01,1.27.46,2.63.72,4.05.72,1.59,0,3.11-.32,4.5-.88-.53-.36-1.14-.65-1.82-.86-.72-.21-1.51-.33-2.34-.33Z"/>
  </g>
  <g id="Warstwa_4" data-name="Warstwa 4">
    <path class="cls-4" d="m14.77,24.93l-.77-6.93s0-1-1-1h-1.31c-.43,0-.83-.24-1.03-.62-.78-1.47-2.44-5.07-.27-5.51.95-.19,1.87.49,2.08,1.44,1.14,5.1,2.54.13,2.54.13v-6.44s-.32-1.02,1.34-1.01,1.66.01,1.66,2.01v5.75s-1,7.25,1,7.25-1-4,1-4,2,6.39,0,6.19-2.14-.19-2.57,2.81-2.66-.07-2.66-.07Z"/>
  </g>
  <g id="Warstwa_5" data-name="Warstwa 5">
    <path class="cls-6" d="m17,10c0,.55.45,1,1,1s1-.45,1-1"/>
    <path class="cls-2" d="m17,10c0,.55-.45,1-1,1s-1-.45-1-1h-.65"/>
    <path class="cls-1" d="m16,11c0,.55.45,1,1,1s1-.45,1-1"/>
  </g>
</svg>